<svg width="128" height="32" viewBox="0 0 128 32" xmlns="http://www.w3.org/2000/svg" shape-rendering="crispEdges" style="image-rendering: pixelated;">

<g id="sit-human-down">
<rect x="0" y="14" width="16" height="14" fill="#1A1A1F"/>
<rect x="1" y="15" width="14" height="12" fill="#888780"/>
<rect x="1" y="15" width="14" height="3" fill="#B4B2A9"/>
<rect x="5" y="2" width="6" height="6" fill="#F4C0A4"/>
<rect x="5" y="2" width="6" height="3" fill="#3A2A1A"/>
<rect x="6" y="5" width="2" height="1" fill="#1A1A1F"/>
<rect x="9" y="5" width="2" height="1" fill="#1A1A1F"/>
<rect x="4" y="8" width="8" height="8" fill="#97C459"/>
<rect x="4" y="8" width="8" height="2" fill="#3B6D11"/>
<rect x="3" y="10" width="2" height="4" fill="#F4C0A4"/>
<rect x="11" y="10" width="2" height="4" fill="#F4C0A4"/>
<rect x="5" y="16" width="6" height="6" fill="#1F3A5C"/>
</g>

<g id="sit-agent-pink" transform="translate(16, 0)">
<rect x="0" y="14" width="16" height="14" fill="#1A1A1F"/>
<rect x="1" y="15" width="14" height="12" fill="#D04A8B"/>
<rect x="1" y="15" width="14" height="3" fill="#E07AAB"/>
<ellipse cx="8" cy="13" rx="7" ry="2" fill="#00D4FF" opacity="0.4"/>
<rect x="5" y="2" width="6" height="6" fill="#C8E0F0"/>
<rect x="5" y="2" width="6" height="3" fill="#1A4A6A"/>
<rect x="6" y="5" width="2" height="1" fill="#00D4FF"/>
<rect x="9" y="5" width="2" height="1" fill="#00D4FF"/>
<rect x="4" y="8" width="8" height="6" fill="#2A2A40"/>
<rect x="4" y="8" width="8" height="2" fill="#D04A8B"/>
<rect x="7" y="11" width="2" height="2" fill="#00D4FF"/>
<rect x="3" y="10" width="2" height="4" fill="#C8E0F0"/>
<rect x="11" y="10" width="2" height="4" fill="#C8E0F0"/>
</g>

<g id="sit-agent-orange" transform="translate(32, 0)">
<rect x="0" y="14" width="16" height="14" fill="#1A1A1F"/>
<rect x="1" y="15" width="14" height="12" fill="#D85A30"/>
<rect x="1" y="15" width="14" height="3" fill="#F0997B"/>
<ellipse cx="8" cy="13" rx="7" ry="2" fill="#00D4FF" opacity="0.4"/>
<rect x="5" y="2" width="6" height="6" fill="#C8E0F0"/>
<rect x="5" y="2" width="6" height="3" fill="#1A4A6A"/>
<rect x="6" y="5" width="2" height="1" fill="#00D4FF"/>
<rect x="9" y="5" width="2" height="1" fill="#00D4FF"/>
<rect x="4" y="8" width="8" height="6" fill="#2A2A40"/>
<rect x="4" y="8" width="8" height="2" fill="#D85A30"/>
<rect x="7" y="11" width="2" height="2" fill="#00D4FF"/>
<rect x="3" y="10" width="2" height="4" fill="#C8E0F0"/>
<rect x="11" y="10" width="2" height="4" fill="#C8E0F0"/>
</g>

<g id="sit-agent-green" transform="translate(48, 0)">
<rect x="0" y="14" width="16" height="14" fill="#1A1A1F"/>
<rect x="1" y="15" width="14" height="12" fill="#639922"/>
<rect x="1" y="15" width="14" height="3" fill="#97C459"/>
<ellipse cx="8" cy="13" rx="7" ry="2" fill="#00D4FF" opacity="0.4"/>
<rect x="5" y="2" width="6" height="6" fill="#C8E0F0"/>
<rect x="5" y="2" width="6" height="3" fill="#1A4A6A"/>
<rect x="6" y="5" width="2" height="1" fill="#00D4FF"/>
<rect x="9" y="5" width="2" height="1" fill="#00D4FF"/>
<rect x="4" y="8" width="8" height="6" fill="#2A2A40"/>
<rect x="4" y="8" width="8" height="2" fill="#639922"/>
<rect x="7" y="11" width="2" height="2" fill="#00D4FF"/>
<rect x="3" y="10" width="2" height="4" fill="#C8E0F0"/>
<rect x="11" y="10" width="2" height="4" fill="#C8E0F0"/>
</g>

<g id="sit-agent-blue" transform="translate(64, 0)">
<rect x="0" y="14" width="16" height="14" fill="#1A1A1F"/>
<rect x="1" y="15" width="14" height="12" fill="#378ADD"/>
<rect x="1" y="15" width="14" height="3" fill="#85B7EB"/>
<ellipse cx="8" cy="13" rx="7" ry="2" fill="#00D4FF" opacity="0.4"/>
<rect x="5" y="2" width="6" height="6" fill="#C8E0F0"/>
<rect x="5" y="2" width="6" height="3" fill="#1A4A6A"/>
<rect x="6" y="5" width="2" height="1" fill="#00D4FF"/>
<rect x="9" y="5" width="2" height="1" fill="#00D4FF"/>
<rect x="4" y="8" width="8" height="6" fill="#2A2A40"/>
<rect x="4" y="8" width="8" height="2" fill="#378ADD"/>
<rect x="7" y="11" width="2" height="2" fill="#00D4FF"/>
<rect x="3" y="10" width="2" height="4" fill="#C8E0F0"/>
<rect x="11" y="10" width="2" height="4" fill="#C8E0F0"/>
</g>

<g id="sit-agent-gold" transform="translate(80, 0)">
<rect x="0" y="14" width="16" height="14" fill="#1A1A1F"/>
<rect x="1" y="15" width="14" height="12" fill="#BA7517"/>
<rect x="1" y="15" width="14" height="3" fill="#EF9F27"/>
<ellipse cx="8" cy="13" rx="7" ry="2" fill="#00D4FF" opacity="0.4"/>
<rect x="5" y="2" width="6" height="6" fill="#C8E0F0"/>
<rect x="5" y="2" width="6" height="3" fill="#1A4A6A"/>
<rect x="6" y="5" width="2" height="1" fill="#00D4FF"/>
<rect x="9" y="5" width="2" height="1" fill="#00D4FF"/>
<rect x="4" y="8" width="8" height="6" fill="#2A2A40"/>
<rect x="4" y="8" width="8" height="2" fill="#BA7517"/>
<rect x="7" y="11" width="2" height="2" fill="#00D4FF"/>
<rect x="3" y="10" width="2" height="4" fill="#C8E0F0"/>
<rect x="11" y="10" width="2" height="4" fill="#C8E0F0"/>
</g>

<g id="sit-agent-burgundy" transform="translate(96, 0)">
<rect x="0" y="14" width="16" height="14" fill="#1A1A1F"/>
<rect x="1" y="15" width="14" height="12" fill="#7B4A4A"/>
<rect x="1" y="15" width="14" height="3" fill="#A35C5C"/>
<ellipse cx="8" cy="13" rx="7" ry="2" fill="#00D4FF" opacity="0.4"/>
<rect x="5" y="2" width="6" height="6" fill="#C8E0F0"/>
<rect x="5" y="2" width="6" height="3" fill="#1A4A6A"/>
<rect x="6" y="5" width="2" height="1" fill="#00D4FF"/>
<rect x="9" y="5" width="2" height="1" fill="#00D4FF"/>
<rect x="4" y="8" width="8" height="6" fill="#2A2A40"/>
<rect x="4" y="8" width="8" height="2" fill="#7B4A4A"/>
<rect x="7" y="11" width="2" height="2" fill="#00D4FF"/>
<rect x="3" y="10" width="2" height="4" fill="#C8E0F0"/>
<rect x="11" y="10" width="2" height="4" fill="#C8E0F0"/>
</g>

<g id="sit-human-2" transform="translate(112, 0)">
<rect x="0" y="14" width="16" height="14" fill="#1A1A1F"/>
<rect x="1" y="15" width="14" height="12" fill="#888780"/>
<rect x="1" y="15" width="14" height="3" fill="#B4B2A9"/>
<rect x="5" y="2" width="6" height="6" fill="#D4A574"/>
<rect x="5" y="2" width="6" height="3" fill="#2A1A0A"/>
<rect x="6" y="5" width="2" height="1" fill="#1A1A1F"/>
<rect x="9" y="5" width="2" height="1" fill="#1A1A1F"/>
<rect x="4" y="8" width="8" height="8" fill="#7F77DD"/>
<rect x="4" y="8" width="8" height="2" fill="#3C3489"/>
<rect x="3" y="10" width="2" height="4" fill="#D4A574"/>
<rect x="11" y="10" width="2" height="4" fill="#D4A574"/>
<rect x="5" y="16" width="6" height="6" fill="#1F3A5C"/>
</g>

</svg>
