<svg width="64" height="96" viewBox="0 0 64 96" xmlns="http://www.w3.org/2000/svg" shape-rendering="crispEdges" style="image-rendering: pixelated;">

<g id="walk-down">
<g id="d-1">
<ellipse cx="8" cy="23" rx="7" ry="2" fill="#00D4FF" opacity="0.4"/>
<rect x="5" y="2" width="6" height="6" fill="#C8E0F0"/>
<rect x="5" y="2" width="6" height="3" fill="#1A4A6A"/>
<rect x="6" y="5" width="2" height="1" fill="#00D4FF"/>
<rect x="9" y="5" width="2" height="1" fill="#00D4FF"/>
<rect x="4" y="8" width="8" height="8" fill="#2A2A40"/>
<rect x="4" y="8" width="8" height="2" fill="#00D4FF"/>
<rect x="7" y="11" width="2" height="2" fill="#00D4FF"/>
<rect x="3" y="9" width="2" height="5" fill="#C8E0F0"/>
<rect x="11" y="9" width="2" height="5" fill="#C8E0F0"/>
<rect x="5" y="16" width="3" height="6" fill="#1F3A5C"/>
<rect x="8" y="16" width="3" height="6" fill="#1F3A5C"/>
<rect x="4" y="22" width="3" height="2" fill="#1A1A1F"/>
<rect x="9" y="22" width="3" height="2" fill="#1A1A1F"/>
</g>
<g id="d-2" transform="translate(16, 0)">
<ellipse cx="8" cy="23" rx="7" ry="2" fill="#00D4FF" opacity="0.4"/>
<rect x="5" y="2" width="6" height="6" fill="#C8E0F0"/>
<rect x="5" y="2" width="6" height="3" fill="#1A4A6A"/>
<rect x="6" y="5" width="2" height="1" fill="#00D4FF"/>
<rect x="9" y="5" width="2" height="1" fill="#00D4FF"/>
<rect x="4" y="8" width="8" height="8" fill="#2A2A40"/>
<rect x="4" y="8" width="8" height="2" fill="#00D4FF"/>
<rect x="7" y="11" width="2" height="2" fill="#00D4FF"/>
<rect x="3" y="10" width="2" height="5" fill="#C8E0F0"/>
<rect x="11" y="10" width="2" height="5" fill="#C8E0F0"/>
<rect x="5" y="16" width="3" height="7" fill="#1F3A5C"/>
<rect x="8" y="16" width="3" height="5" fill="#1F3A5C"/>
<rect x="4" y="23" width="3" height="2" fill="#1A1A1F"/>
<rect x="9" y="21" width="3" height="2" fill="#1A1A1F"/>
</g>
<g id="d-3" transform="translate(32, 0)">
<ellipse cx="8" cy="23" rx="7" ry="2" fill="#00D4FF" opacity="0.4"/>
<rect x="5" y="2" width="6" height="6" fill="#C8E0F0"/>
<rect x="5" y="2" width="6" height="3" fill="#1A4A6A"/>
<rect x="6" y="5" width="2" height="1" fill="#00D4FF"/>
<rect x="9" y="5" width="2" height="1" fill="#00D4FF"/>
<rect x="4" y="8" width="8" height="8" fill="#2A2A40"/>
<rect x="4" y="8" width="8" height="2" fill="#00D4FF"/>
<rect x="7" y="11" width="2" height="2" fill="#00D4FF"/>
<rect x="3" y="9" width="2" height="5" fill="#C8E0F0"/>
<rect x="11" y="9" width="2" height="5" fill="#C8E0F0"/>
<rect x="5" y="16" width="3" height="6" fill="#1F3A5C"/>
<rect x="8" y="16" width="3" height="6" fill="#1F3A5C"/>
<rect x="4" y="22" width="3" height="2" fill="#1A1A1F"/>
<rect x="9" y="22" width="3" height="2" fill="#1A1A1F"/>
</g>
<g id="d-4" transform="translate(48, 0)">
<ellipse cx="8" cy="23" rx="7" ry="2" fill="#00D4FF" opacity="0.4"/>
<rect x="5" y="2" width="6" height="6" fill="#C8E0F0"/>
<rect x="5" y="2" width="6" height="3" fill="#1A4A6A"/>
<rect x="6" y="5" width="2" height="1" fill="#00D4FF"/>
<rect x="9" y="5" width="2" height="1" fill="#00D4FF"/>
<rect x="4" y="8" width="8" height="8" fill="#2A2A40"/>
<rect x="4" y="8" width="8" height="2" fill="#00D4FF"/>
<rect x="7" y="11" width="2" height="2" fill="#00D4FF"/>
<rect x="3" y="10" width="2" height="5" fill="#C8E0F0"/>
<rect x="11" y="10" width="2" height="5" fill="#C8E0F0"/>
<rect x="5" y="16" width="3" height="5" fill="#1F3A5C"/>
<rect x="8" y="16" width="3" height="7" fill="#1F3A5C"/>
<rect x="4" y="21" width="3" height="2" fill="#1A1A1F"/>
<rect x="9" y="23" width="3" height="2" fill="#1A1A1F"/>
</g>
</g>

<g id="walk-left" transform="translate(0, 24)">
<g id="l-1">
<ellipse cx="8" cy="23" rx="7" ry="2" fill="#00D4FF" opacity="0.4"/>
<rect x="5" y="2" width="6" height="6" fill="#C8E0F0"/>
<rect x="4" y="2" width="6" height="3" fill="#1A4A6A"/>
<rect x="5" y="5" width="2" height="1" fill="#00D4FF"/>
<rect x="4" y="8" width="8" height="8" fill="#2A2A40"/>
<rect x="4" y="8" width="8" height="2" fill="#00D4FF"/>
<rect x="3" y="10" width="2" height="5" fill="#C8E0F0"/>
<rect x="5" y="16" width="3" height="6" fill="#1F3A5C"/>
<rect x="8" y="16" width="3" height="6" fill="#1F3A5C"/>
</g>
<g id="l-2" transform="translate(16, 0)">
<ellipse cx="8" cy="23" rx="7" ry="2" fill="#00D4FF" opacity="0.4"/>
<rect x="5" y="2" width="6" height="6" fill="#C8E0F0"/>
<rect x="4" y="2" width="6" height="3" fill="#1A4A6A"/>
<rect x="5" y="5" width="2" height="1" fill="#00D4FF"/>
<rect x="4" y="8" width="8" height="8" fill="#2A2A40"/>
<rect x="3" y="11" width="2" height="4" fill="#C8E0F0"/>
<rect x="6" y="16" width="3" height="7" fill="#1F3A5C"/>
</g>
<g id="l-3" transform="translate(32, 0)">
<ellipse cx="8" cy="23" rx="7" ry="2" fill="#00D4FF" opacity="0.4"/>
<rect x="5" y="2" width="6" height="6" fill="#C8E0F0"/>
<rect x="4" y="2" width="6" height="3" fill="#1A4A6A"/>
<rect x="5" y="5" width="2" height="1" fill="#00D4FF"/>
<rect x="4" y="8" width="8" height="8" fill="#2A2A40"/>
<rect x="3" y="10" width="2" height="5" fill="#C8E0F0"/>
<rect x="5" y="16" width="3" height="6" fill="#1F3A5C"/>
<rect x="8" y="16" width="3" height="6" fill="#1F3A5C"/>
</g>
<g id="l-4" transform="translate(48, 0)">
<ellipse cx="8" cy="23" rx="7" ry="2" fill="#00D4FF" opacity="0.4"/>
<rect x="5" y="2" width="6" height="6" fill="#C8E0F0"/>
<rect x="4" y="2" width="6" height="3" fill="#1A4A6A"/>
<rect x="5" y="5" width="2" height="1" fill="#00D4FF"/>
<rect x="4" y="8" width="8" height="8" fill="#2A2A40"/>
<rect x="3" y="11" width="2" height="4" fill="#C8E0F0"/>
<rect x="7" y="16" width="3" height="7" fill="#1F3A5C"/>
</g>
</g>

<g id="walk-right" transform="translate(0, 48)">
<g id="r-1">
<ellipse cx="8" cy="23" rx="7" ry="2" fill="#00D4FF" opacity="0.4"/>
<rect x="5" y="2" width="6" height="6" fill="#C8E0F0"/>
<rect x="6" y="2" width="6" height="3" fill="#1A4A6A"/>
<rect x="9" y="5" width="2" height="1" fill="#00D4FF"/>
<rect x="4" y="8" width="8" height="8" fill="#2A2A40"/>
<rect x="4" y="8" width="8" height="2" fill="#00D4FF"/>
<rect x="11" y="10" width="2" height="5" fill="#C8E0F0"/>
<rect x="5" y="16" width="3" height="6" fill="#1F3A5C"/>
<rect x="8" y="16" width="3" height="6" fill="#1F3A5C"/>
</g>
<g id="r-2" transform="translate(16, 0)">
<ellipse cx="8" cy="23" rx="7" ry="2" fill="#00D4FF" opacity="0.4"/>
<rect x="5" y="2" width="6" height="6" fill="#C8E0F0"/>
<rect x="6" y="2" width="6" height="3" fill="#1A4A6A"/>
<rect x="9" y="5" width="2" height="1" fill="#00D4FF"/>
<rect x="4" y="8" width="8" height="8" fill="#2A2A40"/>
<rect x="11" y="11" width="2" height="4" fill="#C8E0F0"/>
<rect x="7" y="16" width="3" height="7" fill="#1F3A5C"/>
</g>
<g id="r-3" transform="translate(32, 0)">
<ellipse cx="8" cy="23" rx="7" ry="2" fill="#00D4FF" opacity="0.4"/>
<rect x="5" y="2" width="6" height="6" fill="#C8E0F0"/>
<rect x="6" y="2" width="6" height="3" fill="#1A4A6A"/>
<rect x="9" y="5" width="2" height="1" fill="#00D4FF"/>
<rect x="4" y="8" width="8" height="8" fill="#2A2A40"/>
<rect x="11" y="10" width="2" height="5" fill="#C8E0F0"/>
<rect x="5" y="16" width="3" height="6" fill="#1F3A5C"/>
<rect x="8" y="16" width="3" height="6" fill="#1F3A5C"/>
</g>
<g id="r-4" transform="translate(48, 0)">
<ellipse cx="8" cy="23" rx="7" ry="2" fill="#00D4FF" opacity="0.4"/>
<rect x="5" y="2" width="6" height="6" fill="#C8E0F0"/>
<rect x="6" y="2" width="6" height="3" fill="#1A4A6A"/>
<rect x="9" y="5" width="2" height="1" fill="#00D4FF"/>
<rect x="4" y="8" width="8" height="8" fill="#2A2A40"/>
<rect x="11" y="11" width="2" height="4" fill="#C8E0F0"/>
<rect x="6" y="16" width="3" height="7" fill="#1F3A5C"/>
</g>
</g>

<g id="walk-up" transform="translate(0, 72)">
<g id="u-1">
<ellipse cx="8" cy="23" rx="7" ry="2" fill="#00D4FF" opacity="0.4"/>
<rect x="5" y="2" width="6" height="6" fill="#C8E0F0"/>
<rect x="5" y="2" width="6" height="6" fill="#1A4A6A"/>
<rect x="4" y="8" width="8" height="8" fill="#2A2A40"/>
<rect x="4" y="8" width="8" height="2" fill="#00D4FF"/>
<rect x="3" y="10" width="2" height="5" fill="#C8E0F0"/>
<rect x="11" y="10" width="2" height="5" fill="#C8E0F0"/>
<rect x="5" y="16" width="3" height="6" fill="#1F3A5C"/>
<rect x="8" y="16" width="3" height="6" fill="#1F3A5C"/>
</g>
<g id="u-2" transform="translate(16, 0)">
<ellipse cx="8" cy="23" rx="7" ry="2" fill="#00D4FF" opacity="0.4"/>
<rect x="5" y="2" width="6" height="6" fill="#C8E0F0"/>
<rect x="5" y="2" width="6" height="6" fill="#1A4A6A"/>
<rect x="4" y="8" width="8" height="8" fill="#2A2A40"/>
<rect x="3" y="9" width="2" height="5" fill="#C8E0F0"/>
<rect x="11" y="10" width="2" height="5" fill="#C8E0F0"/>
<rect x="5" y="16" width="3" height="7" fill="#1F3A5C"/>
<rect x="8" y="16" width="3" height="5" fill="#1F3A5C"/>
</g>
<g id="u-3" transform="translate(32, 0)">
<ellipse cx="8" cy="23" rx="7" ry="2" fill="#00D4FF" opacity="0.4"/>
<rect x="5" y="2" width="6" height="6" fill="#C8E0F0"/>
<rect x="5" y="2" width="6" height="6" fill="#1A4A6A"/>
<rect x="4" y="8" width="8" height="8" fill="#2A2A40"/>
<rect x="4" y="8" width="8" height="2" fill="#00D4FF"/>
<rect x="3" y="10" width="2" height="5" fill="#C8E0F0"/>
<rect x="11" y="10" width="2" height="5" fill="#C8E0F0"/>
<rect x="5" y="16" width="3" height="6" fill="#1F3A5C"/>
<rect x="8" y="16" width="3" height="6" fill="#1F3A5C"/>
</g>
<g id="u-4" transform="translate(48, 0)">
<ellipse cx="8" cy="23" rx="7" ry="2" fill="#00D4FF" opacity="0.4"/>
<rect x="5" y="2" width="6" height="6" fill="#C8E0F0"/>
<rect x="5" y="2" width="6" height="6" fill="#1A4A6A"/>
<rect x="4" y="8" width="8" height="8" fill="#2A2A40"/>
<rect x="3" y="10" width="2" height="5" fill="#C8E0F0"/>
<rect x="11" y="9" width="2" height="5" fill="#C8E0F0"/>
<rect x="5" y="16" width="3" height="5" fill="#1F3A5C"/>
<rect x="8" y="16" width="3" height="7" fill="#1F3A5C"/>
</g>
</g>

</svg>
