<svg width="256" height="256" viewBox="0 0 256 256" xmlns="http://www.w3.org/2000/svg" shape-rendering="crispEdges" style="image-rendering: pixelated;">

<rect width="256" height="256" fill="#FF00FF"/>

<g id="desk-orange">
<rect x="0" y="0" width="32" height="16" fill="#1A0F0F"/>
<rect x="1" y="1" width="30" height="14" fill="#FFFFFF"/>
<rect x="1" y="1" width="30" height="3" fill="#D85A30"/>
<rect x="3" y="6" width="10" height="7" fill="#1A1A1F"/>
</g>

<g id="desk-amber" transform="translate(32, 0)">
<rect x="0" y="0" width="32" height="16" fill="#1A0F0F"/>
<rect x="1" y="1" width="30" height="14" fill="#FFFFFF"/>
<rect x="1" y="1" width="30" height="3" fill="#BA7517"/>
<rect x="3" y="6" width="10" height="7" fill="#1A1A1F"/>
</g>

<g id="desk-green" transform="translate(64, 0)">
<rect x="0" y="0" width="32" height="16" fill="#1A0F0F"/>
<rect x="1" y="1" width="30" height="14" fill="#FFFFFF"/>
<rect x="1" y="1" width="30" height="3" fill="#3B6D11"/>
<rect x="3" y="6" width="10" height="7" fill="#1A1A1F"/>
</g>

<g id="desk-blue" transform="translate(96, 0)">
<rect x="0" y="0" width="32" height="16" fill="#1A0F0F"/>
<rect x="1" y="1" width="30" height="14" fill="#FFFFFF"/>
<rect x="1" y="1" width="30" height="3" fill="#378ADD"/>
<rect x="3" y="6" width="10" height="7" fill="#1A1A1F"/>
</g>

<g id="desk-gold" transform="translate(128, 0)">
<rect x="0" y="0" width="32" height="16" fill="#1A0F0F"/>
<rect x="1" y="1" width="30" height="14" fill="#FFFFFF"/>
<rect x="1" y="1" width="30" height="3" fill="#854F0B"/>
<rect x="3" y="6" width="10" height="7" fill="#1A1A1F"/>
</g>

<g id="desk-exec" transform="translate(160, 0)">
<rect x="0" y="0" width="48" height="16" fill="#1A0A0A"/>
<rect x="1" y="1" width="46" height="14" fill="#3A1A0A"/>
<rect x="1" y="1" width="46" height="3" fill="#5A2A1A"/>
<rect x="3" y="6" width="16" height="8" fill="#2A2A30"/>
</g>

<g id="chair-pink" transform="translate(0, 16)">
<rect x="0" y="0" width="16" height="16" fill="#1A1A1F"/>
<rect x="1" y="1" width="14" height="10" fill="#D04A8B"/>
<rect x="1" y="1" width="14" height="3" fill="#1A1A1F"/>
</g>

<g id="chair-orange" transform="translate(16, 16)">
<rect x="0" y="0" width="16" height="16" fill="#1A1A1F"/>
<rect x="1" y="1" width="14" height="10" fill="#D85A30"/>
<rect x="1" y="1" width="14" height="3" fill="#1A1A1F"/>
</g>

<g id="chair-amber" transform="translate(32, 16)">
<rect x="0" y="0" width="16" height="16" fill="#1A1A1F"/>
<rect x="1" y="1" width="14" height="10" fill="#BA7517"/>
<rect x="1" y="1" width="14" height="3" fill="#1A1A1F"/>
</g>

<g id="chair-green" transform="translate(48, 16)">
<rect x="0" y="0" width="16" height="16" fill="#1A1A1F"/>
<rect x="1" y="1" width="14" height="10" fill="#639922"/>
<rect x="1" y="1" width="14" height="3" fill="#1A1A1F"/>
</g>

<g id="chair-blue" transform="translate(64, 16)">
<rect x="0" y="0" width="16" height="16" fill="#1A1A1F"/>
<rect x="1" y="1" width="14" height="10" fill="#378ADD"/>
<rect x="1" y="1" width="14" height="3" fill="#1A1A1F"/>
</g>

<g id="chair-wood" transform="translate(80, 16)">
<rect x="0" y="0" width="16" height="16" fill="#3A2A1A"/>
<rect x="1" y="1" width="14" height="10" fill="#6B4F2E"/>
</g>

<g id="conference-table-rect" transform="translate(96, 16)">
<rect x="0" y="0" width="48" height="32" fill="#3A2A1A"/>
<rect x="1" y="1" width="46" height="30" fill="#6B4F2E"/>
<rect x="1" y="1" width="46" height="3" fill="#8B6F47"/>
</g>

<g id="conference-table-round" transform="translate(144, 16)">
<circle cx="24" cy="24" r="20" fill="#3A2A1A"/>
<circle cx="24" cy="24" r="18" fill="#8B6F47"/>
<circle cx="24" cy="24" r="14" fill="#6B4F2E"/>
</g>

<g id="tv-wall" transform="translate(192, 16)">
<rect x="0" y="0" width="32" height="20" fill="#1A1A1F"/>
<rect x="1" y="1" width="30" height="18" fill="#378ADD"/>
<rect x="2" y="3" width="10" height="3" fill="#FFFFFF"/>
</g>

<g id="whiteboard" transform="translate(224, 16)">
<rect x="0" y="0" width="32" height="16" fill="#1A1A1F"/>
<rect x="1" y="1" width="30" height="14" fill="#FAFAFA"/>
<rect x="4" y="4" width="20" height="2" fill="#E24B4A"/>
<rect x="4" y="8" width="14" height="2" fill="#1A1A1F"/>
</g>

<g id="kitchen-counter" transform="translate(0, 48)">
<rect x="0" y="0" width="64" height="16" fill="#888780"/>
<rect x="1" y="1" width="62" height="14" fill="#B4B2A9"/>
<rect x="1" y="1" width="62" height="2" fill="#D3D1C7"/>
</g>

<g id="stove" transform="translate(64, 48)">
<rect x="0" y="0" width="16" height="16" fill="#1A1A1F"/>
<rect x="1" y="1" width="14" height="14" fill="#2A2A30"/>
<circle cx="5" cy="5" r="2" fill="#5F5E5A"/>
<circle cx="11" cy="5" r="2" fill="#5F5E5A"/>
<circle cx="5" cy="11" r="2" fill="#5F5E5A"/>
<circle cx="11" cy="11" r="2" fill="#5F5E5A"/>
</g>

<g id="sink" transform="translate(80, 48)">
<rect x="0" y="0" width="16" height="16" fill="#888780"/>
<rect x="1" y="1" width="14" height="14" fill="#B4B2A9"/>
<rect x="3" y="3" width="10" height="10" fill="#888780"/>
</g>

<g id="fridge" transform="translate(96, 48)">
<rect x="0" y="0" width="16" height="32" fill="#1A1A1F"/>
<rect x="1" y="1" width="14" height="30" fill="#E8E2D4"/>
<rect x="1" y="11" width="14" height="2" fill="#5F5E5A"/>
<rect x="12" y="4" width="2" height="6" fill="#888780"/>
<rect x="12" y="16" width="2" height="6" fill="#888780"/>
</g>

<g id="coffee-machine" transform="translate(112, 48)">
<rect x="0" y="0" width="16" height="22" fill="#3A2D1A"/>
<rect x="1" y="1" width="14" height="20" fill="#5C4A2E"/>
<rect x="3" y="12" width="10" height="6" fill="#1A1A1F"/>
</g>

<g id="plant-large" transform="translate(128, 48)">
<rect x="2" y="0" width="12" height="10" fill="#97C459"/>
<rect x="0" y="2" width="12" height="8" fill="#97C459"/>
<rect x="4" y="0" width="12" height="8" fill="#97C459"/>
<rect x="6" y="10" width="4" height="6" fill="#8B6F47"/>
</g>

<g id="plant-small" transform="translate(144, 48)">
<rect x="4" y="2" width="8" height="8" fill="#639922"/>
<rect x="2" y="4" width="8" height="6" fill="#639922"/>
<rect x="6" y="10" width="4" height="6" fill="#8B6F47"/>
</g>

<g id="sofa-purple" transform="translate(160, 48)">
<rect x="0" y="0" width="48" height="16" fill="#1A0A2A"/>
<rect x="1" y="1" width="46" height="14" fill="#7F77DD"/>
<rect x="1" y="1" width="46" height="3" fill="#AFA9EC"/>
<rect x="2" y="6" width="10" height="9" fill="#AFA9EC"/>
<rect x="14" y="6" width="10" height="9" fill="#AFA9EC"/>
<rect x="26" y="6" width="10" height="9" fill="#AFA9EC"/>
</g>

<g id="armchair-orange" transform="translate(208, 48)">
<rect x="0" y="0" width="16" height="16" fill="#1A0A0A"/>
<rect x="1" y="1" width="14" height="14" fill="#D85A30"/>
<rect x="1" y="1" width="14" height="3" fill="#F0997B"/>
<rect x="3" y="6" width="10" height="9" fill="#F0997B"/>
</g>

<g id="filing-cabinet" transform="translate(0, 80)">
<rect x="0" y="0" width="16" height="32" fill="#3A2A1A"/>
<rect x="1" y="1" width="14" height="30" fill="#6B4F2E"/>
<rect x="1" y="10" width="14" height="2" fill="#3A2A1A"/>
<rect x="1" y="20" width="14" height="2" fill="#3A2A1A"/>
<rect x="11" y="5" width="2" height="2" fill="#FAC775"/>
<rect x="11" y="15" width="2" height="2" fill="#FAC775"/>
<rect x="11" y="25" width="2" height="2" fill="#FAC775"/>
</g>

<g id="bookshelf" transform="translate(16, 80)">
<rect x="0" y="0" width="20" height="48" fill="#1A0A0A"/>
<rect x="1" y="1" width="18" height="46" fill="#3A1A0A"/>
<rect x="2" y="3" width="6" height="6" fill="#E24B4A"/>
<rect x="9" y="3" width="6" height="6" fill="#378ADD"/>
<rect x="2" y="12" width="14" height="6" fill="#639922"/>
<rect x="2" y="21" width="6" height="6" fill="#BA7517"/>
<rect x="9" y="21" width="6" height="6" fill="#854F0B"/>
</g>

<g id="bean-bag" transform="translate(36, 80)">
<circle cx="8" cy="8" r="7" fill="#1A0A0A"/>
<circle cx="8" cy="8" r="6" fill="#EF9F27"/>
<circle cx="8" cy="6" r="3" fill="#FAC775"/>
</g>

<g id="lamp-floor" transform="translate(52, 80)">
<rect x="4" y="0" width="8" height="6" fill="#FAC775"/>
<rect x="6" y="6" width="4" height="14" fill="#5C4A2E"/>
<rect x="2" y="20" width="12" height="3" fill="#3A2D1A"/>
</g>

<g id="coffee-table" transform="translate(68, 80)">
<rect x="0" y="0" width="32" height="20" fill="#3A2A1A"/>
<rect x="1" y="1" width="30" height="18" fill="#6B4F2E"/>
<rect x="1" y="1" width="30" height="3" fill="#8B6F47"/>
</g>

<g id="reception-desk" transform="translate(100, 80)">
<rect x="0" y="0" width="48" height="32" fill="#1A1A1F"/>
<rect x="1" y="1" width="46" height="30" fill="#3A3530"/>
<rect x="1" y="1" width="46" height="3" fill="#5A5258"/>
<circle cx="24" cy="18" r="8" fill="#85B7EB"/>
</g>

<g id="wall-horizontal" transform="translate(0, 128)">
<rect x="0" y="0" width="32" height="12" fill="#5A4A3A"/>
<rect x="0" y="0" width="32" height="3" fill="#3A2A1A"/>
<rect x="0" y="9" width="32" height="3" fill="#7A6A5A"/>
</g>

<g id="wall-vertical" transform="translate(32, 128)">
<rect x="0" y="0" width="6" height="48" fill="#5A4A3A"/>
<rect x="0" y="0" width="3" height="48" fill="#3A2A1A"/>
</g>

<g id="floor-wood" transform="translate(64, 128)">
<rect x="0" y="0" width="32" height="16" fill="#8B6F47"/>
<rect x="0" y="0" width="16" height="8" fill="#9B7F57"/>
<rect x="16" y="8" width="16" height="8" fill="#9B7F57"/>
</g>

<g id="floor-tile" transform="translate(96, 128)">
<rect x="0" y="0" width="16" height="16" fill="#D9D2C0"/>
<rect x="0" y="0" width="8" height="8" fill="#E8E1CF"/>
<rect x="8" y="8" width="8" height="8" fill="#E8E1CF"/>
</g>

<g id="floor-carpet-blue" transform="translate(112, 128)">
<rect x="0" y="0" width="16" height="16" fill="#3D5A80"/>
<rect x="0" y="0" width="8" height="8" fill="#4A6890"/>
<rect x="8" y="8" width="8" height="8" fill="#4A6890"/>
</g>

<g id="floor-carpet-purple" transform="translate(128, 128)">
<rect x="0" y="0" width="16" height="16" fill="#6B4A9E"/>
<rect x="0" y="0" width="8" height="8" fill="#7B5AAE"/>
<rect x="8" y="8" width="8" height="8" fill="#7B5AAE"/>
</g>

<g id="floor-hall" transform="translate(144, 128)">
<rect x="0" y="0" width="16" height="16" fill="#5A5258"/>
<rect x="0" y="0" width="8" height="8" fill="#6A6268"/>
<rect x="8" y="8" width="8" height="8" fill="#6A6268"/>
</g>

</svg>
