<svg width="640" height="880" viewBox="0 0 640 880" xmlns="http://www.w3.org/2000/svg" shape-rendering="crispEdges" style="image-rendering: pixelated;">
<defs>
<pattern id="woodFloor" x="0" y="0" width="32" height="16" patternUnits="userSpaceOnUse">
<rect width="32" height="16" fill="#8B6F47"/>
<rect x="0" y="0" width="16" height="8" fill="#9B7F57"/>
<rect x="16" y="8" width="16" height="8" fill="#9B7F57"/>
<rect x="0" y="7" width="32" height="1" fill="#6B4F2E"/>
<rect x="0" y="15" width="32" height="1" fill="#6B4F2E"/>
<rect x="15" y="0" width="1" height="8" fill="#6B4F2E"/>
<rect x="31" y="8" width="1" height="8" fill="#6B4F2E"/>
</pattern>
<pattern id="tileFloor" x="0" y="0" width="16" height="16" patternUnits="userSpaceOnUse">
<rect width="16" height="16" fill="#D9D2C0"/>
<rect x="0" y="0" width="8" height="8" fill="#E8E1CF"/>
<rect x="8" y="8" width="8" height="8" fill="#E8E1CF"/>
<rect x="7" y="0" width="1" height="16" fill="#B8AE99"/>
<rect x="15" y="0" width="1" height="16" fill="#B8AE99"/>
<rect x="0" y="7" width="16" height="1" fill="#B8AE99"/>
<rect x="0" y="15" width="16" height="1" fill="#B8AE99"/>
</pattern>
<pattern id="carpetBlue" x="0" y="0" width="8" height="8" patternUnits="userSpaceOnUse">
<rect width="8" height="8" fill="#3D5A80"/>
<rect x="0" y="0" width="4" height="4" fill="#4A6890"/>
<rect x="4" y="4" width="4" height="4" fill="#4A6890"/>
</pattern>
<pattern id="carpetPurple" x="0" y="0" width="8" height="8" patternUnits="userSpaceOnUse">
<rect width="8" height="8" fill="#6B4A9E"/>
<rect x="0" y="0" width="4" height="4" fill="#7B5AAE"/>
<rect x="4" y="4" width="4" height="4" fill="#7B5AAE"/>
</pattern>
<pattern id="carpetExec" x="0" y="0" width="8" height="8" patternUnits="userSpaceOnUse">
<rect width="8" height="8" fill="#6B3A3A"/>
<rect x="0" y="0" width="4" height="4" fill="#7B4A4A"/>
<rect x="4" y="4" width="4" height="4" fill="#7B4A4A"/>
</pattern>
<pattern id="hallFloor" x="0" y="0" width="32" height="32" patternUnits="userSpaceOnUse">
<rect width="32" height="32" fill="#5A5258"/>
<rect x="0" y="0" width="16" height="16" fill="#6A6268"/>
<rect x="16" y="16" width="16" height="16" fill="#6A6268"/>
<rect x="15" y="0" width="1" height="32" fill="#3A3238"/>
<rect x="31" y="0" width="1" height="32" fill="#3A3238"/>
<rect x="0" y="15" width="32" height="1" fill="#3A3238"/>
<rect x="0" y="31" width="32" height="1" fill="#3A3238"/>
</pattern>
</defs>

<rect width="640" height="880" fill="#2A2429"/>
<rect width="640" height="880" fill="url(#hallFloor)"/>

<g id="meeting-room-1">
<rect x="10" y="10" width="200" height="180" fill="url(#woodFloor)"/>
<rect x="10" y="10" width="200" height="12" fill="#5A4A3A"/>
<rect x="10" y="10" width="200" height="3" fill="#3A2A1A"/>
<rect x="10" y="19" width="200" height="3" fill="#7A6A5A"/>
<rect x="10" y="10" width="6" height="180" fill="#5A4A3A"/>
<rect x="204" y="10" width="6" height="180" fill="#5A4A3A"/>
<rect x="10" y="184" width="80" height="6" fill="#5A4A3A"/>
<rect x="130" y="184" width="80" height="6" fill="#5A4A3A"/>
<rect x="40" y="45" width="130" height="60" fill="#3A2A1A"/>
<rect x="42" y="47" width="126" height="56" fill="#6B4F2E"/>
<rect x="42" y="47" width="126" height="3" fill="#8B6F47"/>
<rect x="55" y="30" width="20" height="14" fill="#2A2A30"/>
<rect x="90" y="30" width="20" height="14" fill="#2A2A30"/>
<rect x="125" y="30" width="20" height="14" fill="#2A2A30"/>
<rect x="55" y="106" width="20" height="14" fill="#2A2A30"/>
<rect x="90" y="106" width="20" height="14" fill="#2A2A30"/>
<rect x="125" y="106" width="20" height="14" fill="#2A2A30"/>
<rect x="70" y="63" width="70" height="28" fill="#2A1A1A"/>
<rect x="72" y="65" width="66" height="24" fill="#E24B4A"/>
<rect x="90" y="70" width="30" height="14" fill="#FAFAFA"/>
<rect x="175" y="60" width="6" height="80" fill="#1A1A1F"/>
<rect x="168" y="55" width="20" height="50" fill="#1A1A1F"/>
<rect x="170" y="57" width="16" height="46" fill="#378ADD"/>
<text x="110" y="145" text-anchor="middle" font-family="monospace" font-size="9" font-weight="700" fill="#3A2A1A">SALA REUNIÃO 1</text>
</g>

<g id="meeting-room-2">
<rect x="220" y="10" width="200" height="180" fill="url(#woodFloor)"/>
<rect x="220" y="10" width="200" height="12" fill="#5A4A3A"/>
<rect x="220" y="10" width="200" height="3" fill="#3A2A1A"/>
<rect x="220" y="19" width="200" height="3" fill="#7A6A5A"/>
<rect x="220" y="10" width="6" height="180" fill="#5A4A3A"/>
<rect x="414" y="10" width="6" height="180" fill="#5A4A3A"/>
<rect x="220" y="184" width="80" height="6" fill="#5A4A3A"/>
<rect x="340" y="184" width="80" height="6" fill="#5A4A3A"/>
<circle cx="320" cy="95" r="38" fill="#3A2A1A"/>
<circle cx="320" cy="95" r="35" fill="#6B4F2E"/>
<circle cx="320" cy="95" r="32" fill="#8B6F47"/>
<circle cx="320" cy="95" r="20" fill="#6B4F2E"/>
<rect x="310" y="40" width="20" height="14" fill="#2A2A30"/>
<rect x="360" y="65" width="14" height="20" fill="#2A2A30"/>
<rect x="360" y="105" width="14" height="20" fill="#2A2A30"/>
<rect x="310" y="136" width="20" height="14" fill="#2A2A30"/>
<rect x="266" y="105" width="14" height="20" fill="#2A2A30"/>
<rect x="266" y="65" width="14" height="20" fill="#2A2A30"/>
<rect x="230" y="30" width="56" height="22" fill="#1A1A1F"/>
<rect x="232" y="32" width="52" height="18" fill="#FAFAFA"/>
<text x="320" y="170" text-anchor="middle" font-family="monospace" font-size="9" font-weight="700" fill="#3A2A1A">SALA REUNIÃO 2</text>
</g>

<g id="executive">
<rect x="430" y="10" width="200" height="180" fill="url(#carpetExec)"/>
<rect x="430" y="10" width="200" height="12" fill="#3A1A1A"/>
<rect x="430" y="10" width="6" height="180" fill="#3A1A1A"/>
<rect x="624" y="10" width="6" height="180" fill="#3A1A1A"/>
<rect x="430" y="184" width="80" height="6" fill="#3A1A1A"/>
<rect x="550" y="184" width="80" height="6" fill="#3A1A1A"/>
<rect x="470" y="50" width="120" height="44" fill="#1A0A0A"/>
<rect x="472" y="52" width="116" height="40" fill="#3A1A0A"/>
<rect x="474" y="58" width="40" height="30" fill="#2A2A30"/>
<rect x="476" y="60" width="36" height="22" fill="#378ADD"/>
<rect x="595" y="30" width="20" height="150" fill="#1A0A0A"/>
<rect x="597" y="32" width="16" height="146" fill="#3A1A0A"/>
<rect x="598" y="34" width="6" height="6" fill="#E24B4A"/>
<rect x="605" y="34" width="6" height="6" fill="#378ADD"/>
<rect x="598" y="45" width="14" height="14" fill="#639922"/>
<rect x="598" y="65" width="6" height="14" fill="#BA7517"/>
<rect x="445" y="45" width="20" height="20" fill="#2A1A1A"/>
<rect x="445" y="105" width="20" height="20" fill="#2A1A1A"/>
<text x="530" y="170" text-anchor="middle" font-family="monospace" font-size="9" font-weight="700" fill="#5A2A2A">DIRETORIA</text>
</g>

<g id="marketing">
<rect x="10" y="210" width="200" height="180" fill="url(#tileFloor)"/>
<rect x="10" y="210" width="200" height="12" fill="#5A4A3A"/>
<rect x="10" y="210" width="6" height="180" fill="#5A4A3A"/>
<rect x="204" y="210" width="6" height="180" fill="#5A4A3A"/>
<rect x="10" y="384" width="80" height="6" fill="#5A4A3A"/>
<rect x="130" y="384" width="80" height="6" fill="#5A4A3A"/>
<rect x="30" y="240" width="60" height="36" fill="#1A0F0F"/>
<rect x="32" y="242" width="56" height="32" fill="#FFFFFF"/>
<rect x="32" y="242" width="56" height="4" fill="#D85A30"/>
<rect x="36" y="250" width="20" height="14" fill="#1A1A1F"/>
<rect x="50" y="286" width="20" height="20" fill="#1A1A1F"/>
<rect x="52" y="288" width="16" height="14" fill="#D04A8B"/>
<rect x="110" y="240" width="60" height="36" fill="#1A0F0F"/>
<rect x="112" y="242" width="56" height="32" fill="#FFFFFF"/>
<rect x="112" y="242" width="56" height="4" fill="#D85A30"/>
<rect x="130" y="286" width="20" height="20" fill="#1A1A1F"/>
<rect x="132" y="288" width="16" height="14" fill="#D04A8B"/>
<rect x="30" y="320" width="60" height="36" fill="#1A0F0F"/>
<rect x="32" y="322" width="56" height="32" fill="#FFFFFF"/>
<rect x="32" y="322" width="56" height="4" fill="#D85A30"/>
<rect x="110" y="320" width="60" height="36" fill="#1A0F0F"/>
<rect x="112" y="322" width="56" height="32" fill="#FFFFFF"/>
<rect x="112" y="322" width="56" height="4" fill="#D85A30"/>
<text x="110" y="375" text-anchor="middle" font-family="monospace" font-size="9" font-weight="700" fill="#993C1D">MARKETING</text>
</g>

<g id="copy">
<rect x="220" y="210" width="200" height="180" fill="url(#tileFloor)"/>
<rect x="220" y="210" width="200" height="12" fill="#5A4A3A"/>
<rect x="220" y="210" width="6" height="180" fill="#5A4A3A"/>
<rect x="414" y="210" width="6" height="180" fill="#5A4A3A"/>
<rect x="220" y="384" width="80" height="6" fill="#5A4A3A"/>
<rect x="340" y="384" width="80" height="6" fill="#5A4A3A"/>
<rect x="240" y="240" width="60" height="36" fill="#1A0F0F"/>
<rect x="242" y="242" width="56" height="32" fill="#FFFFFF"/>
<rect x="242" y="242" width="56" height="4" fill="#BA7517"/>
<rect x="260" y="286" width="20" height="20" fill="#1A1A1F"/>
<rect x="262" y="288" width="16" height="14" fill="#BA7517"/>
<rect x="320" y="240" width="60" height="36" fill="#1A0F0F"/>
<rect x="322" y="242" width="56" height="32" fill="#FFFFFF"/>
<rect x="322" y="242" width="56" height="4" fill="#BA7517"/>
<rect x="340" y="286" width="20" height="20" fill="#1A1A1F"/>
<rect x="342" y="288" width="16" height="14" fill="#BA7517"/>
<rect x="240" y="320" width="60" height="36" fill="#1A0F0F"/>
<rect x="242" y="322" width="56" height="32" fill="#FFFFFF"/>
<rect x="242" y="322" width="56" height="4" fill="#BA7517"/>
<rect x="320" y="320" width="60" height="36" fill="#1A0F0F"/>
<rect x="322" y="322" width="56" height="32" fill="#FFFFFF"/>
<rect x="322" y="322" width="56" height="4" fill="#BA7517"/>
<text x="320" y="375" text-anchor="middle" font-family="monospace" font-size="9" font-weight="700" fill="#854F0B">COPY</text>
</g>

<g id="research">
<rect x="430" y="210" width="200" height="180" fill="url(#tileFloor)"/>
<rect x="430" y="210" width="200" height="12" fill="#5A4A3A"/>
<rect x="430" y="210" width="6" height="180" fill="#5A4A3A"/>
<rect x="624" y="210" width="6" height="180" fill="#5A4A3A"/>
<rect x="430" y="384" width="80" height="6" fill="#5A4A3A"/>
<rect x="550" y="384" width="80" height="6" fill="#5A4A3A"/>
<rect x="450" y="240" width="60" height="36" fill="#1A0F0F"/>
<rect x="452" y="242" width="56" height="32" fill="#FFFFFF"/>
<rect x="452" y="242" width="56" height="4" fill="#3B6D11"/>
<rect x="470" y="286" width="20" height="20" fill="#1A1A1F"/>
<rect x="472" y="288" width="16" height="14" fill="#639922"/>
<rect x="530" y="240" width="60" height="36" fill="#1A0F0F"/>
<rect x="532" y="242" width="56" height="32" fill="#FFFFFF"/>
<rect x="532" y="242" width="56" height="4" fill="#3B6D11"/>
<rect x="550" y="286" width="20" height="20" fill="#1A1A1F"/>
<rect x="552" y="288" width="16" height="14" fill="#639922"/>
<rect x="450" y="320" width="60" height="36" fill="#1A0F0F"/>
<rect x="452" y="322" width="56" height="32" fill="#FFFFFF"/>
<rect x="452" y="322" width="56" height="4" fill="#3B6D11"/>
<rect x="530" y="320" width="60" height="36" fill="#1A0F0F"/>
<rect x="532" y="322" width="56" height="32" fill="#FFFFFF"/>
<rect x="532" y="322" width="56" height="4" fill="#3B6D11"/>
<text x="530" y="375" text-anchor="middle" font-family="monospace" font-size="9" font-weight="700" fill="#3B6D11">PESQUISA</text>
</g>

<g id="growth">
<rect x="10" y="410" width="200" height="180" fill="url(#tileFloor)"/>
<rect x="10" y="410" width="200" height="12" fill="#5A4A3A"/>
<rect x="10" y="410" width="6" height="180" fill="#5A4A3A"/>
<rect x="204" y="410" width="6" height="180" fill="#5A4A3A"/>
<rect x="10" y="584" width="80" height="6" fill="#5A4A3A"/>
<rect x="130" y="584" width="80" height="6" fill="#5A4A3A"/>
<rect x="30" y="440" width="70" height="40" fill="#1A0F0F"/>
<rect x="32" y="442" width="66" height="36" fill="#FFFFFF"/>
<rect x="32" y="442" width="66" height="4" fill="#378ADD"/>
<rect x="55" y="490" width="20" height="20" fill="#1A1A1F"/>
<rect x="57" y="492" width="16" height="14" fill="#378ADD"/>
<rect x="120" y="440" width="70" height="40" fill="#1A0F0F"/>
<rect x="122" y="442" width="66" height="36" fill="#FFFFFF"/>
<rect x="122" y="442" width="66" height="4" fill="#378ADD"/>
<rect x="145" y="490" width="20" height="20" fill="#1A1A1F"/>
<rect x="147" y="492" width="16" height="14" fill="#378ADD"/>
<rect x="30" y="530" width="160" height="22" fill="#1A1A1F"/>
<rect x="32" y="532" width="156" height="18" fill="#FAFAFA"/>
<text x="110" y="575" text-anchor="middle" font-family="monospace" font-size="9" font-weight="700" fill="#185FA5">GROWTH</text>
</g>

<g id="kitchen">
<rect x="220" y="410" width="200" height="180" fill="url(#carpetBlue)"/>
<rect x="220" y="410" width="200" height="12" fill="#5A4A3A"/>
<rect x="220" y="410" width="6" height="180" fill="#5A4A3A"/>
<rect x="414" y="410" width="6" height="180" fill="#5A4A3A"/>
<rect x="220" y="584" width="80" height="6" fill="#5A4A3A"/>
<rect x="340" y="584" width="80" height="6" fill="#5A4A3A"/>
<rect x="235" y="435" width="170" height="30" fill="#888780"/>
<rect x="235" y="435" width="170" height="4" fill="#B4B2A9"/>
<rect x="250" y="443" width="30" height="14" fill="#3A3A40"/>
<rect x="290" y="443" width="30" height="14" fill="#1A1A1F"/>
<rect x="330" y="441" width="20" height="20" fill="#3A2A1A"/>
<rect x="360" y="435" width="40" height="30" fill="#FAFAFA"/>
<rect x="250" y="490" width="60" height="40" fill="#3A2A1A"/>
<rect x="252" y="492" width="56" height="36" fill="#8B6F47"/>
<circle cx="375" cy="510" r="22" fill="#3A2A1A"/>
<circle cx="375" cy="510" r="20" fill="#8B6F47"/>
<text x="320" y="575" text-anchor="middle" font-family="monospace" font-size="9" font-weight="700" fill="#FFFFFF">COPA</text>
</g>

<g id="lounge">
<rect x="430" y="410" width="200" height="180" fill="url(#carpetPurple)"/>
<rect x="430" y="410" width="200" height="12" fill="#5A4A3A"/>
<rect x="430" y="410" width="6" height="180" fill="#5A4A3A"/>
<rect x="624" y="410" width="6" height="180" fill="#5A4A3A"/>
<rect x="430" y="584" width="80" height="6" fill="#5A4A3A"/>
<rect x="550" y="584" width="80" height="6" fill="#5A4A3A"/>
<rect x="448" y="440" width="100" height="34" fill="#1A0A2A"/>
<rect x="450" y="442" width="96" height="30" fill="#7F77DD"/>
<rect x="448" y="474" width="34" height="74" fill="#1A0A2A"/>
<rect x="450" y="476" width="30" height="70" fill="#7F77DD"/>
<rect x="495" y="490" width="60" height="40" fill="#3A2A1A"/>
<rect x="497" y="492" width="56" height="36" fill="#6B4F2E"/>
<rect x="575" y="484" width="44" height="44" fill="#1A0A0A"/>
<rect x="577" y="486" width="40" height="40" fill="#D85A30"/>
<text x="530" y="605" text-anchor="middle" font-family="monospace" font-size="9" font-weight="700" fill="#3C3489">ÁREA DE DESCANSO</text>
</g>

<g id="reception">
<rect x="10" y="610" width="620" height="240" fill="url(#woodFloor)"/>
<rect x="10" y="610" width="620" height="12" fill="#5A4A3A"/>
<rect x="10" y="610" width="6" height="240" fill="#5A4A3A"/>
<rect x="624" y="610" width="6" height="240" fill="#5A4A3A"/>
<rect x="10" y="844" width="280" height="6" fill="#5A4A3A"/>
<rect x="350" y="844" width="280" height="6" fill="#5A4A3A"/>
<g id="finance-corner">
<rect x="30" y="640" width="80" height="50" fill="#3A2A1A"/>
<rect x="32" y="642" width="76" height="46" fill="#6B4F2E"/>
<rect x="36" y="650" width="20" height="14" fill="#1A1A1F"/>
<rect x="60" y="650" width="20" height="14" fill="#1A1A1F"/>
<rect x="125" y="640" width="80" height="50" fill="#3A2A1A"/>
<rect x="127" y="642" width="76" height="46" fill="#6B4F2E"/>
<rect x="30" y="730" width="30" height="50" fill="#3A2A1A"/>
<rect x="70" y="730" width="30" height="50" fill="#3A2A1A"/>
<text x="110" y="780" text-anchor="middle" font-family="monospace" font-size="9" font-weight="700" fill="#854F0B">FINANCEIRO</text>
</g>
<g id="reception-desk">
<rect x="230" y="650" width="80" height="120" fill="#1A1A1F"/>
<rect x="232" y="652" width="76" height="116" fill="#3A3530"/>
<circle cx="270" cy="690" r="20" fill="#1A1A1F"/>
<circle cx="270" cy="690" r="17" fill="#85B7EB"/>
<text x="270" y="735" text-anchor="middle" font-family="monospace" font-size="7" font-weight="700" fill="#85B7EB">RECEPÇÃO</text>
<text x="270" y="745" text-anchor="middle" font-family="monospace" font-size="7" font-weight="700" fill="#85B7EB">SPAWN</text>
</g>
<g id="ext-meeting">
<rect x="390" y="650" width="240" height="120" fill="url(#carpetExec)"/>
<rect x="385" y="645" width="250" height="6" fill="#3A1A1A"/>
<rect x="385" y="765" width="250" height="6" fill="#3A1A1A"/>
<rect x="385" y="645" width="6" height="130" fill="#3A1A1A"/>
<rect x="629" y="645" width="6" height="130" fill="#3A1A1A"/>
<rect x="410" y="670" width="60" height="50" fill="#3A2A1A"/>
<rect x="412" y="672" width="56" height="46" fill="#6B4F2E"/>
<rect x="490" y="670" width="80" height="22" fill="#3A2A1A"/>
<rect x="492" y="672" width="76" height="18" fill="#8B6F47"/>
<circle cx="600" cy="690" r="22" fill="#1A0A0A"/>
<circle cx="600" cy="690" r="20" fill="#D85A30"/>
<text x="510" y="755" text-anchor="middle" font-family="monospace" font-size="9" font-weight="700" fill="#5A2A2A">DIRETORIA EXT.</text>
</g>
</g>

</svg>
